<svg width="28" height="28" viewBox="0 0 28 28" fill="none" xmlns="http://www.w3.org/2000/svg">
<g clip-path="url(#clip0_222_936)">
<path fill-rule="evenodd" clip-rule="evenodd" d="M14 0C21.7268 0 28 6.27317 28 14C28 21.7268 21.7268 28 14 28C6.27317 28 0 21.7268 0 14C0 6.27317 6.27317 0 14 0ZM23.4815 22.645C23.1525 22.1772 22.5808 21.882 21.5868 21.6533C17.0975 20.5963 16.807 19.9022 16.5095 19.2512C16.2073 18.592 16.2878 17.8162 16.7487 16.9447C18.7623 13.1448 19.187 9.91667 17.9468 7.85633C17.1605 6.55083 15.7593 5.83333 14 5.83333C12.2255 5.83333 10.8127 6.56367 10.0228 7.89017C8.77917 9.97733 9.21433 13.1915 11.2467 16.94C11.7157 17.8057 11.802 18.5803 11.5033 19.243C11.1942 19.9267 10.7905 20.6313 6.41083 21.6533C5.41683 21.882 4.84517 22.1772 4.51733 22.6427C6.86467 25.2175 10.2457 26.8333 14 26.8333C17.7543 26.8333 21.1342 25.2175 23.4815 22.645ZM24.2398 21.7327C25.8673 19.5813 26.8333 16.9027 26.8333 14C26.8333 6.91717 21.0828 1.16667 14 1.16667C6.91717 1.16667 1.16667 6.91717 1.16667 14C1.16667 16.9015 2.1315 19.5802 3.759 21.7303C4.23617 21.203 4.98283 20.7853 6.1495 20.5158C8.512 19.9768 10.0882 19.5405 10.4405 18.7635C10.5828 18.4462 10.5117 18.0308 10.2212 17.4953C7.98467 13.3712 7.55883 9.7475 9.0195 7.29283C10.0147 5.62333 11.8288 4.66667 14 4.66667C16.1525 4.66667 17.9562 5.60933 18.9467 7.25433C20.4062 9.67983 19.992 13.3152 17.78 17.4907C17.4942 18.0308 17.4253 18.4485 17.5712 18.767C17.927 19.5463 19.4892 19.978 21.8493 20.5158C23.016 20.7842 23.7627 21.2042 24.2398 21.7327Z" fill="#B3B3B3"/>
</g>
<defs>
<clipPath id="clip0_222_936">
<rect width="28" height="28" fill="white"/>
</clipPath>
</defs>
</svg>
