<svg width="29" height="28" viewBox="0 0 29 28" fill="none" xmlns="http://www.w3.org/2000/svg">
<path d="M13.625 13.125V3.5C13.625 3.26794 13.7172 3.04538 13.8813 2.88128C14.0454 2.71719 14.2679 2.625 14.5 2.625C14.7321 2.625 14.9546 2.71719 15.1187 2.88128C15.2828 3.04538 15.375 3.26794 15.375 3.5V13.125H25C25.2321 13.125 25.4546 13.2172 25.6187 13.3813C25.7828 13.5454 25.875 13.7679 25.875 14C25.875 14.2321 25.7828 14.4546 25.6187 14.6187C25.4546 14.7828 25.2321 14.875 25 14.875H15.375V24.5C15.375 24.7321 15.2828 24.9546 15.1187 25.1187C14.9546 25.2828 14.7321 25.375 14.5 25.375C14.2679 25.375 14.0454 25.2828 13.8813 25.1187C13.7172 24.9546 13.625 24.7321 13.625 24.5V14.875H4C3.76794 14.875 3.54538 14.7828 3.38128 14.6187C3.21719 14.4546 3.125 14.2321 3.125 14C3.125 13.7679 3.21719 13.5454 3.38128 13.3813C3.54538 13.2172 3.76794 13.125 4 13.125H13.625Z" fill="#B3B3B3"/>
</svg>
