<svg width="30" height="30" viewBox="0 0 30 30" fill="none" xmlns="http://www.w3.org/2000/svg">
<path d="M6.875 21.875V23.75C6.875 23.9158 6.80915 24.0747 6.69194 24.1919C6.57473 24.3092 6.41576 24.375 6.25 24.375H3.75C3.58424 24.375 3.42527 24.3092 3.30806 24.1919C3.19085 24.0747 3.125 23.9158 3.125 23.75V21.875" stroke="#333333" stroke-linecap="round" stroke-linejoin="round"/>
<path d="M26.875 21.875V23.75C26.875 23.9158 26.8092 24.0747 26.6919 24.1919C26.5747 24.3092 26.4158 24.375 26.25 24.375H23.75C23.5842 24.375 23.4253 24.3092 23.3081 24.1919C23.1908 24.0747 23.125 23.9158 23.125 23.75V21.875" stroke="#333333" stroke-linecap="round" stroke-linejoin="round"/>
<path d="M27.5 21.875C27.6658 21.875 27.8247 21.8092 27.9419 21.6919C28.0592 21.5747 28.125 21.4158 28.125 21.25V17.1337C28.125 16.9683 28.0593 16.8096 27.9425 16.6925L24.375 13.125H5.625L2.0575 16.6925C1.94066 16.8096 1.87504 16.9683 1.875 17.1337V21.25C1.875 21.4158 1.94085 21.5747 2.05806 21.6919C2.17527 21.8092 2.33424 21.875 2.5 21.875H27.5Z" stroke="#333333" stroke-linecap="round" stroke-linejoin="round"/>
<path d="M24.375 13.125L22.0175 6.0525C21.9761 5.9281 21.8966 5.81988 21.7902 5.74316C21.6839 5.66644 21.5561 5.6251 21.425 5.625H8.575C8.44388 5.6251 8.31611 5.66644 8.20978 5.74316C8.10344 5.81988 8.02393 5.9281 7.9825 6.0525L5.625 13.125" stroke="#333333" stroke-linecap="round" stroke-linejoin="round"/>
<path d="M5.625 13.125H2.5C2.33424 13.125 2.17527 13.0592 2.05806 12.9419C1.94085 12.8247 1.875 12.6658 1.875 12.5V11.25C1.875 11.0842 1.94085 10.9253 2.05806 10.8081C2.17527 10.6908 2.33424 10.625 2.5 10.625H6.45875" stroke="#333333" stroke-linecap="round" stroke-linejoin="round"/>
<path d="M23.541 10.625H27.4998C27.6655 10.625 27.8245 10.6908 27.9417 10.8081C28.0589 10.9253 28.1248 11.0842 28.1248 11.25V12.5C28.1248 12.6658 28.0589 12.8247 27.9417 12.9419C27.8245 13.0592 27.6655 13.125 27.4998 13.125H24.3748" stroke="#333333" stroke-linecap="round" stroke-linejoin="round"/>
<path d="M1.9325 16.875H6.25C6.41576 16.875 6.57473 16.9408 6.69194 17.0581C6.80915 17.1753 6.875 17.3342 6.875 17.5V18.75C6.875 18.9158 6.80915 19.0747 6.69194 19.1919C6.57473 19.3092 6.41576 19.375 6.25 19.375H1.875" stroke="#333333" stroke-linecap="round" stroke-linejoin="round"/>
<path d="M28.125 19.375H23.75C23.5842 19.375 23.4253 19.3092 23.3081 19.1919C23.1908 19.0747 23.125 18.9158 23.125 18.75V17.5C23.125 17.3342 23.1908 17.1753 23.3081 17.0581C23.4253 16.9408 23.5842 16.875 23.75 16.875H28.0675" stroke="#333333" stroke-linecap="round" stroke-linejoin="round"/>
</svg>
