<svg width="32" height="32" viewBox="0 0 32 32" fill="none" xmlns="http://www.w3.org/2000/svg">
<rect width="32" height="32" rx="16" fill="#333333" fill-opacity="0.8"/>
<path d="M15.5 15.5V10C15.5 9.86739 15.5527 9.74021 15.6464 9.64645C15.7402 9.55268 15.8674 9.5 16 9.5C16.1326 9.5 16.2598 9.55268 16.3536 9.64645C16.4473 9.74021 16.5 9.86739 16.5 10V15.5H22C22.1326 15.5 22.2598 15.5527 22.3536 15.6464C22.4473 15.7402 22.5 15.8674 22.5 16C22.5 16.1326 22.4473 16.2598 22.3536 16.3536C22.2598 16.4473 22.1326 16.5 22 16.5H16.5V22C16.5 22.1326 16.4473 22.2598 16.3536 22.3536C16.2598 22.4473 16.1326 22.5 16 22.5C15.8674 22.5 15.7402 22.4473 15.6464 22.3536C15.5527 22.2598 15.5 22.1326 15.5 22V16.5H10C9.86739 16.5 9.74021 16.4473 9.64645 16.3536C9.55268 16.2598 9.5 16.1326 9.5 16C9.5 15.8674 9.55268 15.7402 9.64645 15.6464C9.74021 15.5527 9.86739 15.5 10 15.5H15.5Z" fill="white"/>
</svg>
