<svg width="32" height="32" viewBox="0 0 32 32" fill="none" xmlns="http://www.w3.org/2000/svg">
<path d="M15.4667 14.6667C15.4667 13.9307 14.8693 13.3333 14.1333 13.3333C11.9267 13.3333 7.54 13.3333 5.33333 13.3333C4.59733 13.3333 4 13.9307 4 14.6667V26.6667C4 27.4027 4.59733 28 5.33333 28H14.1333C14.8693 28 15.4667 27.4027 15.4667 26.6667C15.4667 23.8773 15.4667 17.456 15.4667 14.6667ZM28 22.6667C28 21.9307 27.4027 21.3333 26.6667 21.3333H18.6667C17.9493 21.3333 17.3333 21.9693 17.3333 22.6667V26.6667C17.3333 27.4027 17.9307 28 18.6667 28H26.6667C27.4027 28 28 27.4027 28 26.6667V22.6667ZM26 23.3333V26H19.3333V23.3333H26ZM13.4667 15.3333V26H6V15.3333H13.4667ZM28 5.33333C28 4.59733 27.4027 4 26.6667 4C24.6173 4 20.716 4 18.6667 4C17.9307 4 17.3333 4.59733 17.3333 5.33333V18.1333C17.3333 18.8693 17.9307 19.4667 18.6667 19.4667H26.6667C27.4027 19.4667 28 18.8693 28 18.1333C28 15.208 28 8.25867 28 5.33333ZM26 6V17.4667H19.3333V6H26ZM15.4667 5.33333C15.4667 4.59733 14.8693 4 14.1333 4C11.9267 4 7.54 4 5.33333 4C4.59733 4 4 4.59733 4 5.33333V10.1333C4 10.8693 4.59733 11.4667 5.33333 11.4667H14.1333C14.8693 11.4667 15.4667 10.8693 15.4667 10.1333C15.4667 8.77733 15.4667 6.68933 15.4667 5.33333ZM13.4667 6V9.46667H6V6H13.4667Z" fill="#B3B3B3"/>
</svg>
