<svg width="30" height="30" viewBox="0 0 30 30" fill="none" xmlns="http://www.w3.org/2000/svg">
<g clip-path="url(#clip0_250_2064)">
<path d="M5.90732 8.49121L1.03857 14.345" stroke="#333333" stroke-linecap="round" stroke-linejoin="round"/>
<path d="M13.1237 14.4701L8.90869 8.73633" stroke="#333333" stroke-linecap="round" stroke-linejoin="round"/>
<path d="M5.62354 7.5C5.62354 7.74623 5.67203 7.99005 5.76626 8.21753C5.86049 8.44502 5.9986 8.65172 6.17271 8.82583C6.34682 8.99994 6.55352 9.13805 6.781 9.23227C7.00849 9.3265 7.25231 9.375 7.49853 9.375C7.74476 9.375 7.98858 9.3265 8.21607 9.23227C8.44355 9.13805 8.65025 8.99994 8.82436 8.82583C8.99847 8.65172 9.13658 8.44502 9.23081 8.21753C9.32504 7.99005 9.37353 7.74623 9.37353 7.5C9.37353 7.25377 9.32504 7.00995 9.23081 6.78247C9.13658 6.55498 8.99847 6.34828 8.82436 6.17417C8.65025 6.00006 8.44355 5.86195 8.21607 5.76773C7.98858 5.6735 7.74476 5.625 7.49853 5.625C7.25231 5.625 7.00849 5.6735 6.781 5.76773C6.55352 5.86195 6.34682 6.00006 6.17271 6.17417C5.9986 6.34828 5.86049 6.55498 5.76626 6.78247C5.67203 7.00995 5.62354 7.25377 5.62354 7.5Z" stroke="#333333" stroke-linecap="round" stroke-linejoin="round"/>
<path d="M1.5573 23.8937C1.64021 25.4008 2.30774 26.8162 3.41797 27.8388C4.5282 28.8613 5.99353 29.4105 7.50237 29.3695C9.01121 29.3285 10.4445 28.7005 11.4975 27.619C12.5505 26.5376 13.1402 25.0881 13.1411 23.5787V7.12497C13.1667 5.8109 12.7895 4.52047 12.0601 3.4271C11.3307 2.33372 10.2842 1.48979 9.06105 1.00872C8.08881 0.64887 7.04233 0.536515 6.01585 0.681778C4.98938 0.82704 4.01516 1.22536 3.18095 1.84085C2.34673 2.45634 1.67872 3.26968 1.23709 4.20761C0.795451 5.14554 0.594061 6.17859 0.651055 7.21372L1.5573 23.8937Z" stroke="#333333" stroke-linecap="round" stroke-linejoin="round"/>
<path d="M24.0898 8.49121L28.9598 14.345" stroke="#333333" stroke-linecap="round" stroke-linejoin="round"/>
<path d="M16.8735 14.4701L21.0898 8.73633" stroke="#333333" stroke-linecap="round" stroke-linejoin="round"/>
<path d="M20.6235 7.5C20.6235 7.99728 20.8211 8.47419 21.1727 8.82583C21.5243 9.17746 22.0013 9.375 22.4985 9.375C22.9958 9.375 23.4727 9.17746 23.8244 8.82583C24.176 8.47419 24.3735 7.99728 24.3735 7.5C24.3735 7.00272 24.176 6.52581 23.8244 6.17417C23.4727 5.82254 22.9958 5.625 22.4985 5.625C22.0013 5.625 21.5243 5.82254 21.1727 6.17417C20.8211 6.52581 20.6235 7.00272 20.6235 7.5Z" stroke="#333333" stroke-linecap="round" stroke-linejoin="round"/>
<path d="M28.4399 23.8937C28.357 25.4008 27.6895 26.8162 26.5793 27.8387C25.469 28.8613 24.0037 29.4105 22.4949 29.3695C20.986 29.3284 19.5527 28.7004 18.4997 27.619C17.4467 26.5376 16.8571 25.0881 16.8562 23.5787V7.12496C16.8307 5.81092 17.208 4.52057 17.9374 3.42723C18.6667 2.33389 19.7132 1.48993 20.9362 1.00871C21.9085 0.648588 22.9551 0.536027 23.9818 0.681163C25.0084 0.826299 25.9828 1.22457 26.8172 1.8401C27.6516 2.45563 28.3197 3.26907 28.7614 4.20713C29.2031 5.1452 29.4045 6.17842 29.3474 7.21371L28.4399 23.8937Z" stroke="#333333" stroke-linecap="round" stroke-linejoin="round"/>
</g>
<defs>
<clipPath id="clip0_250_2064">
<rect width="30" height="30" fill="white"/>
</clipPath>
</defs>
</svg>
